<svg id="svg" version="1.1" xmlns="http://www.w3.org/2000/svg" xmlns:xlink="http://www.w3.org/1999/xlink" width="400" height="400" viewBox="0, 0, 400,400"><g id="svgg"><path id="path0" d="M198.797 8.937 C 198.429 9.305,186.089 12.449,180.600 13.573 C 179.280 13.844,177.480 14.233,176.600 14.439 C 170.855 15.783,156.191 17.751,145.600 18.601 C 125.827 20.188,96.409 18.670,79.400 15.186 C 78.300 14.960,76.410 14.582,75.200 14.345 C 71.065 13.535,67.400 12.705,61.955 11.344 C 55.319 9.685,55.982 9.421,51.937 15.329 C 40.458 32.095,32.837 46.252,25.305 64.800 C 22.103 72.687,18.995 82.088,19.315 82.922 C 19.559 83.559,30.590 83.595,200.088 83.500 L 380.600 83.400 380.718 82.577 C 380.937 81.045,377.015 70.114,371.900 58.000 C 368.039 48.856,359.731 32.890,355.940 27.328 C 355.313 26.408,354.800 25.554,354.800 25.428 C 354.800 24.485,344.515 10.000,343.845 10.000 C 343.600 10.000,340.970 10.609,338.000 11.353 C 332.616 12.702,328.970 13.528,324.800 14.345 C 323.590 14.582,321.700 14.960,320.600 15.186 C 294.736 20.484,254.761 20.499,227.600 15.222 C 219.039 13.558,216.175 12.913,208.400 10.896 C 201.089 9.000,199.133 8.601,198.797 8.937 M261.523 38.839 C 275.350 42.074,276.401 60.687,262.976 64.590 C 251.563 67.908,241.392 61.874,241.433 51.810 C 241.472 42.221,250.650 36.295,261.523 38.839 M335.400 38.822 C 339.023 39.768,342.203 42.067,341.915 43.533 C 341.691 44.675,337.291 45.421,336.268 44.490 C 333.197 41.696,325.776 42.273,326.076 45.283 C 326.249 47.012,327.543 47.818,332.000 48.972 C 337.914 50.503,338.504 50.712,340.488 51.970 C 343.721 54.020,344.821 57.149,343.378 60.190 C 340.254 66.774,324.302 67.063,319.391 60.624 C 317.996 58.795,318.082 58.652,321.038 57.864 L 323.676 57.161 324.826 58.364 C 327.309 60.962,332.796 61.924,335.852 60.296 C 339.187 58.520,337.633 55.017,333.000 53.868 C 322.660 51.305,320.052 49.765,319.691 46.010 C 319.168 40.567,327.492 36.758,335.400 38.822 M61.757 39.433 C 62.128 40.399,62.034 64.127,61.657 64.721 C 61.428 65.082,60.544 65.205,58.764 65.121 L 56.200 65.000 56.094 52.404 C 56.036 45.476,56.075 39.581,56.182 39.304 C 56.488 38.506,61.446 38.621,61.757 39.433 M89.600 49.800 L 89.800 60.600 98.300 60.708 L 106.800 60.816 106.800 62.800 C 106.800 65.358,107.378 65.250,94.400 65.112 L 83.800 65.000 83.694 52.404 C 83.569 37.461,83.286 38.732,86.695 38.882 L 89.400 39.000 89.600 49.800 M130.484 38.900 C 130.530 38.955,130.665 43.860,130.784 49.800 L 131.000 60.600 139.400 60.800 L 147.800 61.000 147.800 63.000 L 147.800 65.000 136.649 65.106 C 128.756 65.182,125.337 65.080,124.949 64.757 C 124.199 64.136,124.134 40.026,124.880 39.280 C 125.275 38.885,130.193 38.552,130.484 38.900 M172.157 39.433 C 172.528 40.398,172.434 64.126,172.058 64.720 C 171.827 65.085,170.905 65.204,168.964 65.120 L 166.200 65.000 166.094 52.404 C 166.036 45.476,166.075 39.581,166.182 39.304 C 166.489 38.502,171.844 38.618,172.157 39.433 M200.778 40.300 C 201.612 41.125,203.059 42.700,203.995 43.800 C 204.930 44.900,206.529 46.700,207.547 47.800 C 208.566 48.900,210.477 51.060,211.794 52.600 C 215.648 57.106,215.352 57.520,215.600 47.268 L 215.800 39.000 218.400 39.000 L 221.000 39.000 221.000 52.000 L 221.000 65.000 218.542 65.118 L 216.084 65.236 213.342 62.160 C 211.834 60.468,209.499 57.895,208.154 56.442 C 206.809 54.989,204.581 52.487,203.204 50.883 C 199.786 46.902,199.819 46.850,199.691 56.415 C 199.613 62.321,199.448 64.649,199.091 64.876 C 198.318 65.367,194.612 65.252,194.080 64.720 C 193.572 64.212,193.352 40.713,193.843 39.433 C 194.391 38.004,199.047 38.586,200.778 40.300 M298.320 39.280 C 299.080 40.040,298.999 64.137,298.234 64.772 C 297.900 65.049,296.710 65.192,295.334 65.121 L 293.000 65.000 292.894 52.404 C 292.836 45.476,292.875 39.581,292.982 39.304 C 293.234 38.646,297.666 38.626,298.320 39.280 M252.504 43.662 C 246.263 46.690,245.885 56.355,251.872 59.863 C 255.631 62.066,261.773 61.083,264.113 57.904 C 270.147 49.703,261.619 39.241,252.504 43.662 " stroke="none" fill="#fa2109" fill-rule="evenodd"></path><path id="path1" d="M198.400 1.197 C 196.423 1.857,186.950 4.333,184.600 4.804 C 183.280 5.069,181.750 5.424,181.200 5.593 C 178.824 6.324,170.909 7.822,164.000 8.848 C 140.436 12.348,108.550 12.157,87.400 8.389 C 86.300 8.193,84.230 7.842,82.800 7.608 C 79.897 7.133,74.935 6.132,72.800 5.589 C 72.030 5.394,70.410 5.017,69.200 4.753 C 67.172 4.310,62.262 3.055,57.413 1.739 C 54.484 0.945,54.196 1.023,52.446 3.100 C 48.731 7.509,34.000 29.468,34.000 30.598 C 34.000 30.673,33.185 32.112,32.189 33.797 C 30.358 36.894,22.516 52.745,20.809 56.800 C 20.299 58.010,19.656 59.540,19.378 60.200 C 18.399 62.530,15.930 69.023,15.349 70.800 C 15.025 71.790,14.607 72.960,14.420 73.400 C 13.880 74.674,13.356 76.278,11.806 81.400 C 11.007 84.040,10.184 86.753,9.977 87.428 C 9.770 88.104,9.600 88.961,9.600 89.334 C 9.600 89.706,9.428 90.323,9.218 90.705 C 8.858 91.361,8.328 93.416,6.935 99.553 C 2.897 117.350,0.805 136.242,0.795 155.021 C 0.788 166.566,1.840 181.979,3.183 190.000 C 3.385 191.210,3.747 193.550,3.986 195.200 C 4.583 199.314,5.181 202.731,5.596 204.400 C 5.788 205.170,6.247 207.240,6.616 209.000 C 7.226 211.907,7.679 213.730,9.994 222.600 C 12.500 232.198,17.849 246.990,22.724 257.800 C 25.004 262.854,30.383 273.518,32.274 276.733 C 33.223 278.346,34.000 279.723,34.000 279.792 C 34.000 280.158,37.903 286.323,42.616 293.400 C 58.189 316.787,77.944 337.700,100.200 354.359 C 105.228 358.122,116.593 366.000,116.995 366.000 C 117.103 366.000,118.409 366.774,119.896 367.720 C 122.968 369.674,128.165 372.681,132.000 374.724 C 135.450 376.562,145.533 381.600,145.761 381.600 C 145.860 381.600,147.305 382.230,148.972 383.000 C 150.639 383.770,152.087 384.400,152.190 384.400 C 152.292 384.400,153.327 384.823,154.488 385.340 C 155.650 385.857,158.130 386.864,160.000 387.578 C 161.870 388.292,163.760 389.029,164.200 389.216 C 166.167 390.051,178.293 393.946,182.200 394.998 C 185.366 395.850,195.174 398.271,197.700 398.824 C 200.103 399.350,200.118 399.349,207.200 397.724 C 211.525 396.731,221.107 394.170,222.600 393.607 C 223.040 393.441,226.100 392.437,229.400 391.377 C 232.700 390.316,235.670 389.312,236.000 389.145 C 236.330 388.979,238.130 388.276,240.000 387.583 C 241.870 386.889,244.350 385.890,245.512 385.361 C 246.673 384.832,247.707 384.400,247.809 384.400 C 248.604 384.400,261.132 378.379,268.600 374.408 C 308.543 353.169,345.961 316.469,367.301 277.600 C 367.845 276.610,368.834 274.810,369.500 273.600 C 371.118 270.658,376.400 260.153,376.400 259.876 C 376.400 259.755,376.921 258.518,377.557 257.128 C 379.833 252.156,380.351 250.934,382.275 246.000 C 383.347 243.250,385.276 237.760,386.563 233.800 C 387.850 229.840,389.045 226.240,389.220 225.800 C 390.046 223.716,393.592 209.045,394.779 202.800 C 399.549 177.700,400.510 151.214,397.558 126.200 C 396.810 119.862,395.628 111.936,394.768 107.500 C 394.566 106.455,394.235 104.745,394.034 103.700 C 393.547 101.167,392.218 95.572,391.399 92.600 C 391.035 91.280,390.379 88.850,389.941 87.200 C 389.503 85.550,388.992 83.660,388.806 83.000 C 388.062 80.364,383.990 68.449,383.202 66.600 C 383.014 66.160,382.139 64.000,381.257 61.800 C 379.795 58.154,379.185 56.728,376.724 51.200 C 375.704 48.909,369.911 37.373,368.759 35.339 C 368.279 34.493,367.437 32.990,366.886 32.000 C 366.336 31.010,365.551 29.722,365.143 29.138 C 364.734 28.554,364.400 27.979,364.400 27.859 C 364.400 27.395,354.950 12.758,353.515 11.000 C 353.336 10.780,351.724 8.620,349.934 6.200 C 345.669 0.434,345.992 0.556,340.000 2.464 C 338.570 2.919,336.770 3.433,336.000 3.605 C 335.230 3.778,332.890 4.313,330.800 4.793 C 312.628 8.971,300.943 10.504,282.200 11.168 C 263.029 11.848,244.583 10.568,227.600 7.380 C 222.368 6.398,220.772 6.066,217.400 5.262 C 216.520 5.052,214.900 4.691,213.800 4.459 C 212.700 4.227,210.540 3.691,209.000 3.269 C 207.460 2.846,204.808 2.118,203.107 1.650 C 199.701 0.714,199.815 0.725,198.400 1.197 M208.400 10.896 C 216.175 12.913,219.039 13.558,227.600 15.222 C 254.761 20.499,294.736 20.484,320.600 15.186 C 321.700 14.960,323.590 14.582,324.800 14.345 C 328.970 13.528,332.616 12.702,338.000 11.353 C 340.970 10.609,343.600 10.000,343.845 10.000 C 344.515 10.000,354.800 24.485,354.800 25.428 C 354.800 25.554,355.313 26.408,355.940 27.328 C 359.731 32.890,368.039 48.856,371.900 58.000 C 377.015 70.114,380.937 81.045,380.718 82.577 L 380.600 83.400 200.088 83.500 C 30.590 83.595,19.559 83.559,19.315 82.922 C 18.995 82.088,22.103 72.687,25.305 64.800 C 32.837 46.252,40.458 32.095,51.937 15.329 C 55.982 9.421,55.319 9.685,61.955 11.344 C 67.400 12.705,71.065 13.535,75.200 14.345 C 76.410 14.582,78.300 14.960,79.400 15.186 C 96.409 18.670,125.827 20.188,145.600 18.601 C 156.191 17.751,170.855 15.783,176.600 14.439 C 177.480 14.233,179.280 13.844,180.600 13.573 C 186.089 12.449,198.429 9.305,198.797 8.937 C 199.133 8.601,201.089 9.000,208.400 10.896 M251.554 39.005 C 240.964 41.909,237.619 54.548,245.553 61.682 C 251.784 67.284,265.538 66.285,269.922 59.913 C 277.951 48.244,266.286 34.967,251.554 39.005 M326.200 38.862 C 321.403 40.455,319.372 42.686,319.691 46.010 C 320.052 49.765,322.660 51.305,333.000 53.868 C 337.633 55.017,339.187 58.520,335.852 60.296 C 332.796 61.924,327.309 60.962,324.826 58.364 L 323.676 57.161 321.038 57.864 C 318.082 58.652,317.996 58.795,319.391 60.624 C 324.302 67.063,340.254 66.774,343.378 60.190 C 344.821 57.149,343.721 54.020,340.488 51.970 C 338.504 50.712,337.914 50.503,332.000 48.972 C 327.543 47.818,326.249 47.012,326.076 45.283 C 325.776 42.273,333.197 41.696,336.268 44.490 C 337.291 45.421,341.691 44.675,341.915 43.533 C 342.558 40.260,331.704 37.034,326.200 38.862 M56.182 39.304 C 56.075 39.581,56.036 45.476,56.094 52.404 L 56.200 65.000 58.764 65.121 C 60.544 65.205,61.428 65.082,61.657 64.721 C 62.034 64.127,62.128 40.399,61.757 39.433 C 61.446 38.621,56.488 38.506,56.182 39.304 M83.789 39.285 C 83.678 39.572,83.636 45.476,83.694 52.404 L 83.800 65.000 94.400 65.112 C 107.378 65.250,106.800 65.358,106.800 62.800 L 106.800 60.816 98.300 60.708 L 89.800 60.600 89.600 49.800 L 89.400 39.000 86.695 38.882 C 84.750 38.796,83.933 38.910,83.789 39.285 M124.880 39.280 C 124.134 40.026,124.199 64.136,124.949 64.757 C 125.337 65.080,128.756 65.182,136.649 65.106 L 147.800 65.000 147.800 63.000 L 147.800 61.000 139.400 60.800 L 131.000 60.600 130.784 49.800 C 130.665 43.860,130.530 38.955,130.484 38.900 C 130.193 38.552,125.275 38.885,124.880 39.280 M166.182 39.304 C 166.075 39.581,166.036 45.476,166.094 52.404 L 166.200 65.000 168.964 65.120 C 170.905 65.204,171.827 65.085,172.058 64.720 C 172.434 64.126,172.528 40.398,172.157 39.433 C 171.844 38.618,166.489 38.502,166.182 39.304 M193.843 39.433 C 193.352 40.713,193.572 64.212,194.080 64.720 C 194.612 65.252,198.318 65.367,199.091 64.876 C 199.448 64.649,199.613 62.321,199.691 56.415 C 199.819 46.850,199.786 46.902,203.204 50.883 C 204.581 52.487,206.809 54.989,208.154 56.442 C 209.499 57.895,211.834 60.468,213.342 62.160 L 216.084 65.236 218.542 65.118 L 221.000 65.000 221.000 52.000 L 221.000 39.000 218.400 39.000 L 215.800 39.000 215.600 47.268 C 215.352 57.520,215.648 57.106,211.794 52.600 C 210.477 51.060,208.566 48.900,207.547 47.800 C 206.529 46.700,204.930 44.900,203.995 43.800 C 200.023 39.129,199.541 38.800,196.674 38.800 C 194.683 38.800,194.030 38.946,193.843 39.433 M292.982 39.304 C 292.875 39.581,292.836 45.476,292.894 52.404 L 293.000 65.000 295.334 65.121 C 296.710 65.192,297.900 65.049,298.234 64.772 C 298.999 64.137,299.080 40.040,298.320 39.280 C 297.666 38.626,293.234 38.646,292.982 39.304 M261.600 43.742 C 267.573 46.793,267.496 56.971,261.477 60.071 C 253.898 63.974,245.723 57.209,247.972 48.895 C 249.359 43.770,256.424 41.098,261.600 43.742 M384.507 96.800 C 385.129 99.330,385.793 102.210,385.982 103.200 C 390.029 124.406,391.200 135.864,391.200 154.239 C 391.200 169.976,390.348 180.288,387.800 195.400 C 386.702 201.909,386.606 202.382,384.758 210.400 C 382.765 219.048,377.833 235.210,375.421 241.000 C 363.331 270.016,353.221 287.390,336.432 308.000 C 325.285 321.684,308.064 338.335,295.885 347.205 C 294.832 347.972,293.122 349.247,292.085 350.037 C 277.991 360.786,255.423 373.203,237.400 380.127 C 231.196 382.510,223.376 385.243,220.600 385.999 C 219.940 386.179,217.420 386.882,215.000 387.561 C 209.163 389.200,208.125 389.476,206.000 389.955 C 205.010 390.178,203.266 390.581,202.124 390.850 C 199.858 391.384,199.681 391.357,190.800 389.121 C 123.340 372.140,65.927 325.813,34.497 263.000 C 30.913 255.837,30.442 254.838,28.030 249.295 C 23.134 238.038,17.034 219.251,14.817 208.600 C 12.268 196.351,10.910 188.060,10.034 179.400 C 7.573 155.081,9.107 124.683,13.817 104.400 C 13.945 103.850,14.212 102.680,14.411 101.800 C 15.178 98.408,16.511 92.977,16.694 92.500 C 16.847 92.100,53.745 92.019,200.131 92.100 L 383.375 92.200 384.507 96.800 M160.966 106.781 C 140.816 112.736,132.273 142.738,144.047 166.192 C 145.150 168.388,146.180 170.278,146.336 170.392 C 146.493 170.507,147.219 171.369,147.951 172.309 C 154.608 180.860,171.304 183.803,182.240 178.353 C 187.452 175.756,194.873 166.911,192.486 166.143 C 192.108 166.022,190.450 165.399,188.800 164.759 C 185.044 163.302,185.120 163.297,183.779 165.100 C 179.629 170.676,173.166 173.359,166.243 172.378 C 157.713 171.168,151.850 164.385,149.150 152.600 C 148.420 149.414,148.406 136.573,149.129 133.800 C 149.416 132.700,149.838 131.080,150.067 130.200 C 152.609 120.431,159.755 114.608,169.200 114.611 C 175.927 114.613,177.454 115.251,181.917 119.923 L 184.834 122.977 188.617 121.023 C 192.917 118.801,192.872 118.891,191.030 116.155 C 185.304 107.652,172.026 103.512,160.966 106.781 M221.560 106.778 C 211.761 109.860,206.489 117.271,207.694 126.269 C 208.680 133.627,214.273 139.351,224.301 143.265 C 235.673 147.704,238.201 148.937,241.167 151.495 C 247.971 157.361,245.875 168.844,237.503 171.572 C 229.042 174.330,219.831 171.367,215.378 164.456 C 214.510 163.109,213.687 162.005,213.549 162.003 C 213.411 162.002,211.611 162.614,209.549 163.365 C 205.106 164.982,204.904 165.526,207.335 169.325 C 218.965 187.506,250.082 184.351,254.220 164.570 C 256.815 152.169,250.358 143.545,233.600 137.028 C 228.251 134.948,228.510 135.057,225.200 133.472 C 218.304 130.167,215.799 126.402,217.153 121.375 C 218.418 116.676,222.166 114.604,229.400 114.604 C 236.145 114.603,239.166 116.019,242.460 120.722 L 243.048 121.561 246.824 120.244 C 251.834 118.498,251.746 116.417,246.449 111.398 C 241.320 106.537,229.374 104.319,221.560 106.778 M172.200 193.973 C 158.270 195.766,146.146 204.050,141.059 215.253 C 139.531 218.619,139.349 220.000,140.433 220.000 C 140.624 220.000,141.909 220.516,143.290 221.147 C 144.670 221.778,146.700 222.695,147.800 223.185 C 148.900 223.676,150.323 224.329,150.961 224.638 C 152.669 225.464,152.608 225.519,154.683 221.320 C 164.219 202.022,196.552 203.174,201.855 223.000 C 204.252 231.958,200.196 241.208,190.212 249.553 C 188.996 250.570,176.944 258.400,176.595 258.400 C 176.481 258.400,175.355 259.062,174.094 259.872 C 154.440 272.482,143.757 284.654,139.926 298.800 C 138.553 303.871,137.600 310.124,137.600 314.067 L 137.600 317.204 178.300 317.102 L 219.000 317.000 219.000 309.800 L 219.000 302.600 187.082 302.498 L 155.165 302.395 155.429 300.898 C 156.895 292.577,166.867 281.071,178.559 274.210 C 179.318 273.764,181.257 272.590,182.869 271.600 C 184.481 270.610,185.964 269.730,186.164 269.645 C 190.140 267.956,203.229 258.392,207.828 253.814 C 226.083 235.646,219.556 204.170,195.857 196.086 C 189.887 194.050,179.096 193.086,172.200 193.973 M90.847 198.166 C 87.393 205.182,80.900 209.031,71.250 209.785 C 67.382 210.087,67.600 209.764,67.600 215.181 C 67.600 220.951,66.483 220.400,78.190 220.400 C 86.324 220.400,87.545 220.481,87.757 221.033 C 87.891 221.381,88.000 243.165,88.000 269.442 L 88.000 317.218 95.300 317.109 L 102.600 317.000 102.701 256.300 L 102.803 195.600 97.456 195.600 L 92.110 195.600 90.847 198.166 M254.562 196.061 C 254.405 196.315,254.134 197.980,253.958 199.761 C 253.685 202.546,252.726 210.815,251.148 224.000 C 250.924 225.870,250.586 228.840,250.396 230.600 C 250.054 233.771,249.571 238.023,248.850 244.200 C 247.843 252.828,247.472 256.806,247.657 256.991 C 248.103 257.436,261.235 262.000,262.072 262.000 C 262.292 262.000,263.562 261.029,264.895 259.842 C 278.849 247.412,302.289 250.776,309.193 266.200 C 311.800 272.023,312.246 284.764,309.936 287.380 C 309.751 287.589,309.600 287.984,309.600 288.259 C 309.600 290.128,303.879 297.344,300.617 299.588 C 287.708 308.470,267.657 306.769,254.000 295.633 C 252.107 294.090,251.901 294.275,244.614 304.049 C 243.169 305.988,243.284 306.235,246.911 309.002 C 263.498 321.654,293.158 322.733,309.600 311.283 C 336.453 292.582,332.024 249.967,302.200 240.094 C 290.344 236.170,275.209 237.942,265.610 244.378 C 262.971 246.148,263.030 246.567,264.388 235.700 C 266.053 222.368,266.299 220.415,266.982 215.074 C 267.314 212.474,267.689 210.179,267.816 209.974 C 267.955 209.748,278.214 209.600,293.624 209.600 L 319.200 209.600 319.200 202.600 L 319.200 195.600 287.024 195.600 C 263.149 195.600,254.774 195.719,254.562 196.061 " stroke="none" fill="#f6f6f7" fill-rule="evenodd"></path><path id="path2" d="M51.500 0.683 C 51.115 1.112,50.800 1.585,50.800 1.735 C 50.800 1.885,50.297 2.534,49.681 3.178 C 49.066 3.821,48.301 4.855,47.981 5.474 C 47.662 6.093,46.817 7.230,46.103 8.000 C 45.390 8.770,44.805 9.675,44.803 10.012 C 44.802 10.348,44.440 10.883,44.000 11.200 C 43.560 11.517,43.200 12.007,43.200 12.288 C 43.200 12.570,43.020 12.800,42.800 12.800 C 42.580 12.800,42.400 12.996,42.400 13.236 C 42.400 13.476,41.770 14.409,41.000 15.308 C 40.230 16.208,39.600 17.182,39.600 17.472 C 39.600 17.762,39.420 18.000,39.200 18.000 C 38.980 18.000,38.800 18.320,38.800 18.712 C 38.800 19.103,38.440 19.683,38.000 20.000 C 37.560 20.317,37.200 20.987,37.200 21.488 C 37.200 22.032,36.958 22.400,36.600 22.400 C 36.270 22.400,36.000 22.694,36.000 23.053 C 36.000 23.412,35.685 23.999,35.300 24.357 C 34.377 25.216,33.600 26.628,33.600 27.448 C 33.600 27.810,33.249 28.411,32.820 28.783 C 32.390 29.155,31.383 30.706,30.581 32.230 C 29.779 33.753,28.961 35.171,28.762 35.380 C 28.563 35.589,28.400 36.084,28.400 36.480 C 28.400 36.876,28.220 37.200,28.000 37.200 C 27.780 37.200,27.600 37.482,27.600 37.827 C 27.600 38.171,27.150 39.043,26.600 39.764 C 26.050 40.486,25.600 41.374,25.600 41.738 C 25.600 42.102,25.420 42.400,25.200 42.400 C 24.980 42.400,24.800 42.858,24.800 43.417 C 24.800 43.976,24.440 44.820,24.000 45.292 C 23.560 45.764,23.200 46.477,23.200 46.875 C 23.200 47.274,23.020 47.600,22.800 47.600 C 22.580 47.600,22.400 48.140,22.400 48.800 C 22.400 49.460,22.233 50.000,22.029 50.000 C 21.602 50.000,20.400 52.259,20.400 53.061 C 20.400 53.358,20.256 53.600,20.080 53.600 C 19.669 53.600,18.800 55.995,18.800 57.128 C 18.800 57.608,18.665 58.001,18.500 58.003 C 18.153 58.007,17.200 59.933,17.200 60.631 C 17.200 60.890,16.930 61.326,16.600 61.600 C 16.270 61.874,16.000 62.706,16.000 63.449 C 16.000 64.192,15.864 64.800,15.698 64.800 C 15.531 64.800,15.160 65.385,14.871 66.100 C 14.583 66.815,14.179 67.713,13.974 68.095 C 13.768 68.477,13.600 69.422,13.600 70.195 C 13.600 70.968,13.420 71.600,13.200 71.600 C 12.980 71.600,12.800 72.050,12.800 72.600 C 12.800 73.150,12.644 73.600,12.454 73.600 C 11.937 73.600,10.800 76.841,10.800 78.313 C 10.800 79.021,10.620 79.600,10.400 79.600 C 10.180 79.600,10.000 80.039,10.000 80.576 C 10.000 81.113,9.820 81.664,9.600 81.800 C 9.380 81.936,9.200 82.476,9.200 83.000 C 9.200 83.524,9.020 84.064,8.800 84.200 C 8.580 84.336,8.400 84.966,8.400 85.600 C 8.400 86.234,8.220 86.864,8.000 87.000 C 7.780 87.136,7.600 88.059,7.600 89.052 C 7.600 90.123,7.356 91.101,7.000 91.457 C 6.670 91.787,6.400 92.484,6.400 93.005 C 6.400 93.526,6.220 94.064,6.000 94.200 C 5.780 94.336,5.600 95.056,5.600 95.800 C 5.600 96.544,5.420 97.264,5.200 97.400 C 4.980 97.536,4.800 98.706,4.800 100.000 C 4.800 101.294,4.620 102.464,4.400 102.600 C 4.180 102.736,4.000 103.557,4.000 104.424 C 4.000 105.291,3.820 106.000,3.600 106.000 C 3.380 106.000,3.200 106.900,3.200 108.000 C 3.200 109.100,3.020 110.000,2.800 110.000 C 2.560 110.000,2.400 111.586,2.400 113.957 C 2.400 116.985,2.268 117.965,1.839 118.130 C 1.498 118.261,1.191 119.182,1.057 120.473 C 0.936 121.643,0.637 124.490,0.394 126.800 C -0.259 132.987,0.015 186.872,0.700 187.100 C 1.017 187.206,1.200 188.050,1.200 189.405 C 1.200 190.772,1.416 191.759,1.800 192.143 C 2.250 192.593,2.400 193.702,2.400 196.571 C 2.400 198.857,2.561 200.400,2.800 200.400 C 3.020 200.400,3.200 201.199,3.200 202.176 C 3.200 203.153,3.380 204.064,3.600 204.200 C 3.820 204.336,4.000 205.056,4.000 205.800 C 4.000 206.544,4.180 207.264,4.400 207.400 C 4.620 207.536,4.800 208.796,4.800 210.200 C 4.800 211.604,4.980 212.864,5.200 213.000 C 5.420 213.136,5.600 213.766,5.600 214.400 C 5.600 215.034,5.780 215.664,6.000 215.800 C 6.220 215.936,6.400 216.564,6.400 217.195 C 6.400 217.826,6.670 218.613,7.000 218.943 C 7.356 219.299,7.600 220.277,7.600 221.348 C 7.600 222.341,7.780 223.264,8.000 223.400 C 8.220 223.536,8.400 224.166,8.400 224.800 C 8.400 225.434,8.580 226.064,8.800 226.200 C 9.020 226.336,9.200 226.887,9.200 227.424 C 9.200 227.961,9.380 228.400,9.600 228.400 C 9.820 228.400,10.000 228.839,10.000 229.376 C 10.000 229.913,10.180 230.464,10.400 230.600 C 10.620 230.736,10.800 231.546,10.800 232.400 C 10.800 233.254,10.980 234.064,11.200 234.200 C 11.420 234.336,11.600 234.784,11.600 235.195 C 11.600 235.606,11.870 236.213,12.200 236.543 C 12.530 236.873,12.800 237.516,12.800 237.971 C 12.800 238.427,12.980 238.800,13.200 238.800 C 13.420 238.800,13.600 239.520,13.600 240.400 C 13.600 241.280,13.780 242.000,14.000 242.000 C 14.220 242.000,14.400 242.355,14.400 242.788 C 14.400 243.221,14.760 244.217,15.200 245.000 C 15.640 245.783,16.000 246.856,16.000 247.384 C 16.000 247.911,16.270 248.613,16.600 248.943 C 16.930 249.273,17.200 249.826,17.200 250.171 C 17.200 250.517,17.380 250.800,17.600 250.800 C 17.820 250.800,18.000 251.149,18.000 251.576 C 18.000 252.003,18.180 252.464,18.400 252.600 C 18.620 252.736,18.800 253.276,18.800 253.800 C 18.800 254.324,18.980 254.864,19.200 255.000 C 19.420 255.136,19.600 255.597,19.600 256.024 C 19.600 256.451,19.780 256.800,20.000 256.800 C 20.220 256.800,20.400 257.055,20.400 257.368 C 20.400 258.081,21.698 260.394,22.100 260.397 C 22.265 260.399,22.400 260.940,22.400 261.600 C 22.400 262.260,22.580 262.800,22.800 262.800 C 23.020 262.800,23.200 263.126,23.200 263.525 C 23.200 263.923,23.560 264.636,24.000 265.108 C 24.440 265.580,24.800 266.424,24.800 266.983 C 24.800 267.542,24.980 268.000,25.200 268.000 C 25.420 268.000,25.600 268.278,25.600 268.618 C 25.600 268.958,26.050 269.686,26.600 270.236 C 27.150 270.786,27.600 271.678,27.600 272.218 C 27.600 272.758,27.780 273.200,28.000 273.200 C 28.220 273.200,28.400 273.526,28.400 273.925 C 28.400 274.323,28.760 275.036,29.200 275.508 C 29.640 275.980,30.000 276.548,30.000 276.769 C 30.000 277.426,32.067 280.947,32.863 281.647 C 33.269 282.003,33.600 282.678,33.600 283.147 C 33.600 283.616,33.758 284.000,33.951 284.000 C 34.145 284.000,34.527 284.540,34.800 285.200 C 35.073 285.860,35.455 286.400,35.649 286.400 C 35.842 286.400,36.000 286.766,36.000 287.213 C 36.000 287.659,36.270 288.129,36.600 288.255 C 36.930 288.382,37.200 288.702,37.200 288.967 C 37.200 289.232,37.560 289.836,38.000 290.308 C 38.440 290.780,38.800 291.444,38.800 291.783 C 38.800 292.122,38.980 292.400,39.200 292.400 C 39.420 292.400,39.600 292.588,39.600 292.817 C 39.600 293.253,40.000 293.796,41.500 295.401 C 41.995 295.930,42.400 296.642,42.400 296.982 C 42.400 297.322,42.580 297.600,42.800 297.600 C 43.020 297.600,43.200 297.830,43.200 298.112 C 43.200 298.393,43.560 298.883,44.000 299.200 C 44.440 299.517,44.800 300.031,44.800 300.341 C 44.800 300.652,45.128 301.197,45.528 301.553 C 45.929 301.909,46.598 302.785,47.015 303.500 C 47.431 304.215,47.914 304.800,48.086 304.800 C 48.259 304.800,48.400 304.973,48.400 305.184 C 48.400 305.876,51.703 310.000,52.258 310.000 C 52.556 310.000,52.800 310.360,52.800 310.800 C 52.800 311.240,52.980 311.600,53.200 311.600 C 53.420 311.600,53.600 311.798,53.600 312.040 C 53.600 312.281,54.140 312.983,54.800 313.600 C 55.460 314.217,56.000 314.868,56.000 315.048 C 56.000 315.227,56.413 315.740,56.919 316.187 C 57.424 316.634,58.262 317.630,58.780 318.400 C 59.298 319.170,60.370 320.453,61.161 321.252 C 61.952 322.050,63.479 323.715,64.553 324.952 C 65.627 326.188,66.752 327.200,67.053 327.200 C 67.354 327.200,67.600 327.468,67.600 327.795 C 67.600 328.566,68.829 330.000,69.489 330.000 C 69.770 330.000,70.000 330.219,70.000 330.487 C 70.000 331.011,71.904 332.800,72.462 332.800 C 72.648 332.800,72.800 332.978,72.800 333.195 C 72.800 333.757,74.096 335.200,74.601 335.200 C 74.833 335.200,75.288 335.588,75.612 336.062 C 75.935 336.536,76.626 337.301,77.147 337.762 C 77.668 338.223,78.685 339.185,79.407 339.900 C 80.129 340.615,80.813 341.200,80.927 341.200 C 81.040 341.200,82.327 342.370,83.785 343.800 C 85.243 345.230,86.621 346.400,86.847 346.400 C 87.337 346.400,88.400 347.407,88.401 347.871 C 88.401 348.052,89.207 348.709,90.191 349.331 C 91.818 350.358,92.883 351.216,95.486 353.591 C 95.973 354.036,96.558 354.400,96.786 354.400 C 97.014 354.400,97.200 354.580,97.200 354.800 C 97.200 355.020,97.448 355.200,97.751 355.200 C 98.053 355.200,99.066 355.920,100.000 356.800 C 100.934 357.680,101.848 358.400,102.031 358.400 C 102.214 358.400,102.814 358.850,103.364 359.400 C 103.914 359.950,104.552 360.400,104.782 360.400 C 105.012 360.400,105.200 360.580,105.200 360.800 C 105.200 361.020,105.478 361.200,105.818 361.200 C 106.158 361.200,106.870 361.605,107.399 362.100 C 108.734 363.348,109.235 363.715,110.493 364.364 C 111.095 364.674,111.942 365.259,112.377 365.664 C 112.811 366.069,113.491 366.400,113.888 366.400 C 114.285 366.400,114.948 366.850,115.361 367.400 C 115.774 367.950,116.357 368.400,116.656 368.400 C 116.955 368.400,117.200 368.580,117.200 368.800 C 117.200 369.020,117.560 369.200,118.000 369.200 C 118.440 369.200,118.800 369.380,118.800 369.600 C 118.800 369.820,119.160 370.000,119.600 370.000 C 120.040 370.000,120.400 370.180,120.400 370.400 C 120.400 370.620,120.670 370.800,121.000 370.800 C 121.330 370.800,121.600 370.967,121.600 371.171 C 121.600 371.375,122.320 371.860,123.200 372.248 C 124.080 372.636,124.800 373.066,124.800 373.202 C 124.800 373.339,125.430 373.698,126.200 374.000 C 126.970 374.302,127.600 374.696,127.600 374.875 C 127.600 375.054,127.872 375.200,128.205 375.200 C 128.761 375.200,130.322 375.922,130.800 376.400 C 131.141 376.741,132.570 377.594,133.200 377.832 C 133.530 377.957,134.250 378.327,134.800 378.654 C 135.350 378.982,136.115 379.349,136.500 379.471 C 136.885 379.593,137.200 379.852,137.200 380.047 C 137.200 380.241,137.549 380.400,137.976 380.400 C 138.403 380.400,138.864 380.580,139.000 380.800 C 139.136 381.020,139.687 381.200,140.224 381.200 C 140.761 381.200,141.200 381.380,141.200 381.600 C 141.200 381.820,141.384 382.000,141.608 382.000 C 141.832 382.000,142.729 382.450,143.600 383.000 C 144.471 383.550,145.439 384.000,145.751 384.000 C 146.063 384.000,147.345 384.540,148.600 385.200 C 149.855 385.860,151.313 386.400,151.841 386.400 C 152.368 386.400,152.800 386.580,152.800 386.800 C 152.800 387.020,153.340 387.200,154.000 387.200 C 154.718 387.200,155.200 387.409,155.200 387.720 C 155.200 388.289,157.358 389.200,158.705 389.200 C 159.171 389.200,159.664 389.380,159.800 389.600 C 159.936 389.820,160.397 390.000,160.824 390.000 C 161.251 390.000,161.600 390.180,161.600 390.400 C 161.600 390.620,161.962 390.800,162.405 390.800 C 162.848 390.800,163.568 390.980,164.005 391.200 C 165.940 392.174,166.302 392.315,167.600 392.600 C 168.898 392.885,169.260 393.026,171.195 394.000 C 171.632 394.220,172.341 394.400,172.771 394.400 C 173.201 394.400,173.664 394.580,173.800 394.800 C 173.936 395.020,174.937 395.200,176.024 395.200 C 177.111 395.200,178.000 395.380,178.000 395.600 C 178.000 395.820,178.439 396.000,178.976 396.000 C 179.513 396.000,180.064 396.180,180.200 396.400 C 180.336 396.620,180.872 396.800,181.390 396.800 C 181.909 396.800,182.402 397.007,182.487 397.260 C 182.571 397.514,183.670 397.806,184.928 397.911 C 186.186 398.015,187.312 398.258,187.431 398.450 C 187.550 398.643,188.141 398.800,188.744 398.800 C 189.347 398.800,190.065 399.025,190.340 399.300 C 190.712 399.672,193.263 399.800,200.287 399.800 C 207.489 399.800,209.773 399.681,209.900 399.300 C 209.992 399.025,210.581 398.800,211.210 398.800 C 211.838 398.800,212.450 398.643,212.569 398.450 C 212.688 398.258,213.814 398.015,215.072 397.911 C 216.330 397.806,217.429 397.514,217.513 397.260 C 217.598 397.007,218.091 396.800,218.610 396.800 C 219.128 396.800,219.664 396.620,219.800 396.400 C 219.936 396.180,220.487 396.000,221.024 396.000 C 221.561 396.000,222.000 395.820,222.000 395.600 C 222.000 395.380,222.889 395.200,223.976 395.200 C 225.063 395.200,226.064 395.020,226.200 394.800 C 226.336 394.580,226.799 394.400,227.229 394.400 C 227.659 394.400,228.368 394.220,228.805 394.000 C 230.740 393.026,231.102 392.885,232.400 392.600 C 233.698 392.315,234.060 392.174,235.995 391.200 C 236.432 390.980,237.152 390.800,237.595 390.800 C 238.038 390.800,238.400 390.620,238.400 390.400 C 238.400 390.180,238.749 390.000,239.176 390.000 C 239.603 390.000,240.064 389.820,240.200 389.600 C 240.336 389.380,240.829 389.200,241.295 389.200 C 242.642 389.200,244.800 388.289,244.800 387.720 C 244.800 387.409,245.282 387.200,246.000 387.200 C 246.660 387.200,247.200 387.020,247.200 386.800 C 247.200 386.580,247.729 386.400,248.376 386.400 C 249.023 386.400,249.664 386.220,249.800 386.000 C 249.936 385.780,250.397 385.600,250.824 385.600 C 251.251 385.600,251.601 385.465,251.603 385.300 C 251.606 384.976,253.514 384.000,254.145 384.000 C 254.832 384.000,257.600 382.656,257.600 382.323 C 257.600 382.145,257.870 382.000,258.200 382.000 C 258.530 382.000,258.800 381.820,258.800 381.600 C 258.800 381.380,259.239 381.200,259.776 381.200 C 260.313 381.200,260.864 381.020,261.000 380.800 C 261.136 380.580,261.597 380.400,262.024 380.400 C 262.451 380.400,262.800 380.241,262.800 380.047 C 262.800 379.852,263.115 379.593,263.500 379.471 C 264.116 379.276,265.080 378.770,267.200 377.528 C 267.530 377.335,268.115 377.071,268.500 376.942 C 268.885 376.812,269.200 376.592,269.200 376.451 C 269.200 376.310,269.785 375.956,270.500 375.663 C 272.863 374.696,275.200 373.478,275.200 373.214 C 275.200 373.071,275.882 372.653,276.716 372.285 C 277.549 371.917,278.622 371.253,279.099 370.808 C 279.576 370.364,280.244 370.000,280.583 370.000 C 280.922 370.000,281.200 369.820,281.200 369.600 C 281.200 369.380,281.560 369.200,282.000 369.200 C 282.440 369.200,282.800 369.020,282.800 368.800 C 282.800 368.580,283.025 368.397,283.300 368.393 C 283.575 368.389,284.224 367.939,284.742 367.393 C 285.260 366.847,285.943 366.400,286.259 366.400 C 286.575 366.400,287.189 366.069,287.623 365.664 C 288.058 365.259,288.905 364.674,289.507 364.364 C 290.695 363.751,290.822 363.662,292.600 362.193 C 293.260 361.647,293.998 361.201,294.241 361.200 C 294.483 361.200,295.246 360.660,295.937 360.000 C 296.628 359.340,297.331 358.800,297.500 358.800 C 297.670 358.800,298.293 358.350,298.887 357.800 C 299.480 357.250,300.141 356.800,300.356 356.800 C 300.570 356.800,300.860 356.440,301.000 356.000 C 301.140 355.560,301.567 355.200,301.949 355.200 C 302.566 355.200,303.758 354.297,306.686 351.612 C 307.173 351.166,307.758 350.800,307.986 350.800 C 308.214 350.800,308.400 350.662,308.400 350.494 C 308.400 350.326,309.120 349.744,310.000 349.200 C 310.880 348.656,311.600 348.026,311.600 347.800 C 311.600 347.574,312.334 346.941,313.231 346.394 C 314.129 345.847,315.035 345.085,315.246 344.700 C 315.456 344.315,315.767 344.000,315.938 344.000 C 316.108 344.000,317.526 342.785,319.089 341.300 C 320.651 339.815,322.396 338.260,322.965 337.844 C 323.534 337.428,324.000 336.920,324.000 336.715 C 324.000 336.249,325.027 335.200,325.483 335.200 C 325.923 335.200,327.200 333.709,327.200 333.195 C 327.200 332.978,327.439 332.800,327.730 332.800 C 328.374 332.800,330.000 331.134,330.000 330.474 C 330.000 330.213,330.245 330.000,330.544 330.000 C 330.843 330.000,331.428 329.542,331.844 328.982 C 332.260 328.423,333.590 326.918,334.800 325.637 C 339.529 320.635,340.689 319.311,341.399 318.109 C 341.804 317.424,342.555 316.638,343.068 316.364 C 343.580 316.089,344.000 315.652,344.000 315.392 C 344.000 315.132,344.540 314.354,345.200 313.663 C 345.860 312.972,346.400 312.226,346.400 312.004 C 346.400 311.782,346.580 311.600,346.800 311.600 C 347.020 311.600,347.200 311.240,347.200 310.800 C 347.200 310.360,347.458 310.000,347.773 310.000 C 348.088 310.000,348.758 309.415,349.262 308.700 C 349.766 307.985,350.498 307.051,350.889 306.625 C 351.280 306.198,351.600 305.695,351.600 305.507 C 351.600 305.319,352.050 304.680,352.600 304.087 C 353.150 303.493,353.600 302.821,353.600 302.592 C 353.600 302.364,353.960 301.917,354.400 301.600 C 354.840 301.283,355.200 300.743,355.200 300.400 C 355.200 300.057,355.560 299.517,356.000 299.200 C 356.440 298.883,356.800 298.476,356.800 298.295 C 356.800 298.114,356.977 297.749,357.194 297.483 C 359.066 295.188,359.600 294.424,359.600 294.042 C 359.600 293.799,359.780 293.600,360.000 293.600 C 360.220 293.600,360.400 293.330,360.400 293.000 C 360.400 292.670,360.580 292.400,360.800 292.400 C 361.020 292.400,361.200 292.055,361.200 291.633 C 361.200 291.212,361.342 290.807,361.517 290.733 C 362.040 290.513,364.000 287.760,364.000 287.246 C 364.000 286.982,364.360 286.380,364.800 285.908 C 365.240 285.436,365.600 284.813,365.600 284.525 C 365.600 284.236,365.780 284.000,366.000 284.000 C 366.220 284.000,366.400 283.616,366.400 283.147 C 366.400 282.678,366.731 282.003,367.137 281.647 C 367.933 280.947,370.000 277.426,370.000 276.769 C 370.000 276.548,370.360 275.980,370.800 275.508 C 371.240 275.036,371.600 274.400,371.600 274.096 C 371.600 273.792,371.870 273.273,372.200 272.943 C 372.530 272.613,372.800 271.996,372.800 271.571 C 372.800 271.147,372.947 270.800,373.126 270.800 C 373.596 270.800,375.200 267.665,375.200 266.745 C 375.200 266.317,375.560 265.580,376.000 265.108 C 376.440 264.636,376.800 263.923,376.800 263.525 C 376.800 263.126,376.977 262.800,377.192 262.800 C 377.408 262.800,377.708 262.305,377.858 261.700 C 378.009 261.095,378.462 260.010,378.866 259.288 C 379.270 258.566,379.600 257.711,379.600 257.388 C 379.600 257.065,379.780 256.800,380.000 256.800 C 380.220 256.800,380.400 256.451,380.400 256.024 C 380.400 255.597,380.580 255.136,380.800 255.000 C 381.020 254.864,381.200 254.313,381.200 253.776 C 381.200 253.239,381.380 252.800,381.600 252.800 C 381.820 252.800,382.000 252.350,382.000 251.800 C 382.000 251.250,382.147 250.800,382.326 250.800 C 382.771 250.800,384.000 248.155,384.000 247.199 C 384.000 246.773,384.360 245.783,384.800 245.000 C 385.240 244.217,385.600 243.221,385.600 242.788 C 385.600 242.355,385.780 242.000,386.000 242.000 C 386.220 242.000,386.400 241.280,386.400 240.400 C 386.400 239.520,386.580 238.800,386.800 238.800 C 387.020 238.800,387.200 238.427,387.200 237.971 C 387.200 237.516,387.470 236.873,387.800 236.543 C 388.130 236.213,388.400 235.606,388.400 235.195 C 388.400 234.784,388.580 234.336,388.800 234.200 C 389.020 234.064,389.200 233.243,389.200 232.376 C 389.200 231.509,389.380 230.800,389.600 230.800 C 389.820 230.800,390.000 230.260,390.000 229.600 C 390.000 228.940,390.180 228.400,390.400 228.400 C 390.620 228.400,390.800 227.961,390.800 227.424 C 390.800 226.887,390.980 226.336,391.200 226.200 C 391.420 226.064,391.600 225.511,391.600 224.971 C 391.600 224.431,391.773 223.677,391.984 223.295 C 392.369 222.597,393.084 219.726,393.477 217.300 C 393.593 216.585,393.848 216.000,394.044 216.000 C 394.240 216.000,394.400 215.381,394.400 214.624 C 394.400 213.867,394.580 213.136,394.800 213.000 C 395.020 212.864,395.200 211.604,395.200 210.200 C 395.200 208.796,395.380 207.536,395.600 207.400 C 395.820 207.264,396.000 206.544,396.000 205.800 C 396.000 205.056,396.180 204.336,396.400 204.200 C 396.620 204.064,396.800 203.168,396.800 202.210 C 396.800 201.171,397.002 200.399,397.300 200.300 C 397.639 200.187,397.844 198.923,397.936 196.367 C 398.010 194.295,398.235 192.429,398.436 192.220 C 398.636 192.011,398.800 190.811,398.800 189.553 C 398.800 188.080,398.978 187.207,399.300 187.100 C 399.987 186.871,400.259 132.977,399.604 126.800 C 399.359 124.490,399.062 121.565,398.944 120.300 C 398.826 119.035,398.582 118.000,398.403 118.000 C 398.224 118.000,398.015 116.260,397.939 114.133 C 397.844 111.499,397.641 110.213,397.300 110.100 C 396.990 109.997,396.800 109.185,396.800 107.967 C 396.800 106.885,396.620 106.000,396.400 106.000 C 396.180 106.000,396.000 105.291,396.000 104.424 C 396.000 103.557,395.820 102.736,395.600 102.600 C 395.380 102.464,395.200 101.294,395.200 100.000 C 395.200 98.706,395.020 97.536,394.800 97.400 C 394.580 97.264,394.400 96.544,394.400 95.800 C 394.400 95.056,394.220 94.336,394.000 94.200 C 393.780 94.064,393.600 93.434,393.600 92.800 C 393.600 92.166,393.437 91.546,393.237 91.423 C 393.038 91.300,392.751 90.300,392.600 89.200 C 392.449 88.100,392.162 87.100,391.963 86.977 C 391.763 86.854,391.600 86.234,391.600 85.600 C 391.600 84.966,391.420 84.336,391.200 84.200 C 390.980 84.064,390.800 83.524,390.800 83.000 C 390.800 82.476,390.620 81.936,390.400 81.800 C 390.180 81.664,390.000 81.113,390.000 80.576 C 390.000 80.039,389.820 79.600,389.600 79.600 C 389.380 79.600,389.200 78.801,389.200 77.824 C 389.200 76.847,389.020 75.936,388.800 75.800 C 388.580 75.664,388.400 75.198,388.400 74.764 C 388.400 74.330,388.130 73.871,387.800 73.745 C 387.470 73.618,387.200 73.094,387.200 72.581 C 387.200 72.067,387.020 71.536,386.800 71.400 C 386.580 71.264,386.400 70.621,386.400 69.971 C 386.400 69.321,386.243 68.477,386.050 68.095 C 384.439 64.896,383.996 63.782,383.971 62.862 C 383.955 62.278,383.593 61.260,383.166 60.600 C 382.740 59.940,382.282 59.085,382.149 58.700 C 382.016 58.315,381.748 58.000,381.553 58.000 C 381.359 58.000,381.200 57.496,381.200 56.880 C 381.200 55.664,380.384 53.608,379.900 53.603 C 379.735 53.601,379.600 53.150,379.600 52.600 C 379.600 52.050,379.464 51.600,379.298 51.600 C 378.990 51.600,378.285 50.131,377.809 48.500 C 377.664 48.005,377.378 47.600,377.173 47.600 C 376.968 47.600,376.800 47.274,376.800 46.875 C 376.800 46.477,376.440 45.764,376.000 45.292 C 375.560 44.820,375.200 43.976,375.200 43.417 C 375.200 42.858,375.020 42.400,374.800 42.400 C 374.580 42.400,374.400 42.113,374.400 41.762 C 374.400 41.411,374.064 40.646,373.652 40.062 C 373.241 39.478,372.779 38.595,372.626 38.100 C 372.472 37.605,372.178 37.200,371.973 37.200 C 371.768 37.200,371.600 36.876,371.600 36.480 C 371.600 36.084,371.437 35.589,371.238 35.380 C 371.039 35.171,370.221 33.753,369.419 32.230 C 368.617 30.706,367.610 29.155,367.180 28.783 C 366.751 28.411,366.400 27.810,366.400 27.448 C 366.400 26.628,365.623 25.216,364.700 24.357 C 364.315 23.999,364.000 23.412,364.000 23.053 C 364.000 22.694,363.820 22.400,363.600 22.400 C 363.380 22.400,363.200 22.138,363.200 21.818 C 363.200 21.498,362.750 20.786,362.200 20.236 C 361.650 19.686,361.200 18.958,361.200 18.618 C 361.200 18.278,361.020 18.000,360.800 18.000 C 360.580 18.000,360.400 17.817,360.400 17.594 C 360.400 17.000,357.547 12.800,357.143 12.800 C 356.955 12.800,356.800 12.570,356.800 12.288 C 356.800 12.007,356.440 11.517,356.000 11.200 C 355.560 10.883,355.200 10.331,355.200 9.974 C 355.200 9.616,354.822 8.982,354.359 8.563 C 353.897 8.144,353.258 7.298,352.939 6.682 C 352.316 5.478,351.526 4.444,350.100 2.968 C 349.605 2.456,349.200 1.780,349.200 1.467 C 349.200 -0.044,340.804 -0.660,338.200 0.659 C 337.760 0.882,336.800 1.365,336.068 1.732 C 335.314 2.110,333.793 2.400,332.568 2.400 C 331.375 2.400,330.400 2.580,330.400 2.800 C 330.400 3.020,329.770 3.200,329.000 3.200 C 328.230 3.200,327.600 3.380,327.600 3.600 C 327.600 3.820,326.916 4.000,326.080 4.000 C 325.244 4.000,324.389 4.165,324.180 4.368 C 323.971 4.570,322.630 4.832,321.200 4.950 C 316.866 5.309,314.620 5.659,314.220 6.039 C 314.011 6.237,313.079 6.400,312.149 6.400 C 311.178 6.400,310.201 6.656,309.857 7.000 C 309.400 7.457,308.257 7.600,305.052 7.600 C 302.680 7.600,300.739 7.774,300.600 8.000 C 300.463 8.221,298.663 8.400,296.576 8.400 C 294.470 8.400,292.800 8.567,292.800 8.778 C 292.800 9.474,264.932 10.292,264.256 9.616 C 264.010 9.370,261.666 9.200,258.520 9.200 C 255.240 9.200,253.200 9.047,253.200 8.800 C 253.200 8.562,251.675 8.400,249.424 8.400 C 247.337 8.400,245.537 8.221,245.400 8.000 C 245.259 7.773,243.253 7.600,240.748 7.600 C 237.366 7.600,236.204 7.461,235.743 7.000 C 235.413 6.670,234.472 6.400,233.651 6.400 C 232.831 6.400,231.989 6.237,231.780 6.039 C 231.380 5.659,229.134 5.309,224.800 4.950 C 223.370 4.832,222.029 4.570,221.820 4.368 C 221.611 4.165,220.857 4.000,220.144 4.000 C 219.431 4.000,218.736 3.820,218.600 3.600 C 218.464 3.380,217.834 3.200,217.200 3.200 C 216.566 3.200,215.936 3.020,215.800 2.800 C 215.664 2.580,214.561 2.400,213.348 2.400 C 211.921 2.400,210.931 2.188,210.543 1.800 C 210.213 1.470,209.542 1.200,209.051 1.200 C 208.561 1.200,207.935 0.975,207.660 0.700 C 207.297 0.337,205.195 0.200,200.000 0.200 C 194.805 0.200,192.703 0.337,192.340 0.700 C 192.065 0.975,191.439 1.200,190.949 1.200 C 190.458 1.200,189.787 1.470,189.457 1.800 C 189.069 2.188,188.079 2.400,186.652 2.400 C 185.439 2.400,184.336 2.580,184.200 2.800 C 184.064 3.020,183.434 3.200,182.800 3.200 C 182.166 3.200,181.536 3.380,181.400 3.600 C 181.264 3.820,180.569 4.000,179.856 4.000 C 179.143 4.000,178.389 4.165,178.180 4.368 C 177.971 4.570,176.630 4.832,175.200 4.950 C 170.866 5.309,168.620 5.659,168.220 6.039 C 168.011 6.237,167.169 6.400,166.349 6.400 C 165.528 6.400,164.587 6.670,164.257 7.000 C 163.796 7.461,162.634 7.600,159.252 7.600 C 156.747 7.600,154.741 7.773,154.600 8.000 C 154.463 8.221,152.663 8.400,150.576 8.400 C 148.325 8.400,146.800 8.562,146.800 8.800 C 146.800 9.046,144.827 9.200,141.680 9.200 C 138.675 9.200,136.388 9.372,136.145 9.615 C 135.465 10.295,107.200 9.478,107.200 8.778 C 107.200 8.567,105.530 8.400,103.424 8.400 C 101.337 8.400,99.537 8.221,99.400 8.000 C 99.261 7.774,97.320 7.600,94.948 7.600 C 91.743 7.600,90.600 7.457,90.143 7.000 C 89.799 6.656,88.822 6.400,87.851 6.400 C 86.921 6.400,85.989 6.237,85.780 6.039 C 85.372 5.651,83.032 5.291,78.700 4.948 C 77.215 4.830,76.000 4.569,76.000 4.367 C 76.000 4.165,75.291 4.000,74.424 4.000 C 73.557 4.000,72.736 3.820,72.600 3.600 C 72.464 3.380,71.733 3.200,70.976 3.200 C 70.219 3.200,69.600 3.020,69.600 2.800 C 69.600 2.580,68.597 2.400,67.371 2.400 C 65.924 2.400,64.933 2.190,64.543 1.800 C 64.213 1.470,63.521 1.200,63.005 1.200 C 62.489 1.200,61.999 0.996,61.915 0.746 C 61.611 -0.167,52.314 -0.223,51.500 0.683 M203.107 1.650 C 204.808 2.118,207.460 2.846,209.000 3.269 C 210.540 3.691,212.700 4.227,213.800 4.459 C 214.900 4.691,216.520 5.052,217.400 5.262 C 250.390 13.129,291.542 13.416,325.400 6.016 C 326.280 5.824,328.710 5.274,330.800 4.793 C 332.890 4.313,335.230 3.778,336.000 3.605 C 336.770 3.433,338.570 2.919,340.000 2.464 C 345.992 0.556,345.669 0.434,349.934 6.200 C 351.724 8.620,353.336 10.780,353.515 11.000 C 354.950 12.758,364.400 27.395,364.400 27.859 C 364.400 27.979,364.734 28.554,365.143 29.138 C 365.551 29.722,366.336 31.010,366.886 32.000 C 367.437 32.990,368.279 34.493,368.759 35.339 C 369.911 37.373,375.704 48.909,376.724 51.200 C 379.185 56.728,379.795 58.154,381.257 61.800 C 382.139 64.000,383.014 66.160,383.202 66.600 C 383.990 68.449,388.062 80.364,388.806 83.000 C 388.992 83.660,389.503 85.550,389.941 87.200 C 390.379 88.850,391.035 91.280,391.399 92.600 C 392.218 95.572,393.547 101.167,394.034 103.700 C 394.235 104.745,394.566 106.455,394.768 107.500 C 395.628 111.936,396.810 119.862,397.558 126.200 C 400.510 151.214,399.549 177.700,394.779 202.800 C 393.592 209.045,390.046 223.716,389.220 225.800 C 389.045 226.240,387.850 229.840,386.563 233.800 C 385.276 237.760,383.347 243.250,382.275 246.000 C 380.351 250.934,379.833 252.156,377.557 257.128 C 376.921 258.518,376.400 259.755,376.400 259.876 C 376.400 260.153,371.118 270.658,369.500 273.600 C 368.834 274.810,367.845 276.610,367.301 277.600 C 345.961 316.469,308.543 353.169,268.600 374.408 C 261.132 378.379,248.604 384.400,247.809 384.400 C 247.707 384.400,246.673 384.832,245.512 385.361 C 244.350 385.890,241.870 386.889,240.000 387.583 C 238.130 388.276,236.330 388.979,236.000 389.145 C 235.670 389.312,232.700 390.316,229.400 391.377 C 226.100 392.437,223.040 393.441,222.600 393.607 C 221.107 394.170,211.525 396.731,207.200 397.724 C 200.118 399.349,200.103 399.350,197.700 398.824 C 195.174 398.271,185.366 395.850,182.200 394.998 C 178.293 393.946,166.167 390.051,164.200 389.216 C 163.760 389.029,161.870 388.292,160.000 387.578 C 158.130 386.864,155.650 385.857,154.488 385.340 C 153.327 384.823,152.292 384.400,152.190 384.400 C 152.087 384.400,150.639 383.770,148.972 383.000 C 147.305 382.230,145.860 381.600,145.761 381.600 C 145.533 381.600,135.450 376.562,132.000 374.724 C 128.165 372.681,122.968 369.674,119.896 367.720 C 118.409 366.774,117.103 366.000,116.995 366.000 C 116.593 366.000,105.228 358.122,100.200 354.359 C 77.944 337.700,58.189 316.787,42.616 293.400 C 37.903 286.323,34.000 280.158,34.000 279.792 C 34.000 279.723,33.223 278.346,32.274 276.733 C 27.536 268.680,19.679 251.579,15.949 241.200 C 13.590 234.636,11.131 226.953,9.994 222.600 C 7.679 213.730,7.226 211.907,6.616 209.000 C 6.247 207.240,5.788 205.170,5.596 204.400 C 5.181 202.731,4.583 199.314,3.986 195.200 C 3.747 193.550,3.385 191.210,3.183 190.000 C 1.840 181.979,0.788 166.566,0.795 155.021 C 0.805 136.242,2.897 117.350,6.935 99.553 C 8.328 93.416,8.858 91.361,9.218 90.705 C 9.428 90.323,9.600 89.706,9.600 89.334 C 9.600 88.961,9.770 88.104,9.977 87.428 C 10.184 86.753,11.007 84.040,11.806 81.400 C 13.356 76.278,13.880 74.674,14.420 73.400 C 14.607 72.960,15.025 71.790,15.349 70.800 C 15.930 69.023,18.399 62.530,19.378 60.200 C 19.656 59.540,20.299 58.010,20.809 56.800 C 22.516 52.745,30.358 36.894,32.189 33.797 C 33.185 32.112,34.000 30.673,34.000 30.598 C 34.000 29.468,48.731 7.509,52.446 3.100 C 54.196 1.023,54.484 0.945,57.413 1.739 C 62.262 3.055,67.172 4.310,69.200 4.753 C 70.410 5.017,72.030 5.394,72.800 5.589 C 74.935 6.132,79.897 7.133,82.800 7.608 C 84.230 7.842,86.300 8.193,87.400 8.389 C 108.550 12.157,140.436 12.348,164.000 8.848 C 170.909 7.822,178.824 6.324,181.200 5.593 C 181.750 5.424,183.280 5.069,184.600 4.804 C 186.950 4.333,196.423 1.857,198.400 1.197 C 199.815 0.725,199.701 0.714,203.107 1.650 M16.694 92.500 C 16.511 92.977,15.178 98.408,14.411 101.800 C 14.212 102.680,13.945 103.850,13.817 104.400 C 9.107 124.683,7.573 155.081,10.034 179.400 C 10.910 188.060,12.268 196.351,14.817 208.600 C 17.034 219.251,23.134 238.038,28.030 249.295 C 30.442 254.838,30.913 255.837,34.497 263.000 C 65.927 325.813,123.340 372.140,190.800 389.121 C 199.681 391.357,199.858 391.384,202.124 390.850 C 203.266 390.581,205.010 390.178,206.000 389.955 C 208.125 389.476,209.163 389.200,215.000 387.561 C 217.420 386.882,219.940 386.179,220.600 385.999 C 223.376 385.243,231.196 382.510,237.400 380.127 C 255.423 373.203,277.991 360.786,292.085 350.037 C 293.122 349.247,294.832 347.972,295.885 347.205 C 308.064 338.335,325.285 321.684,336.432 308.000 C 353.221 287.390,363.331 270.016,375.421 241.000 C 377.833 235.210,382.765 219.048,384.758 210.400 C 386.606 202.382,386.702 201.909,387.800 195.400 C 389.553 185.003,389.692 183.838,390.805 170.131 C 391.316 163.837,391.314 144.677,390.802 138.108 C 389.852 125.931,389.482 122.956,387.556 112.000 C 385.874 102.434,385.792 102.025,384.507 96.800 L 383.375 92.200 200.131 92.100 C 53.745 92.019,16.847 92.100,16.694 92.500 M178.706 107.150 C 184.237 108.883,187.970 111.612,191.030 116.155 C 192.872 118.891,192.917 118.801,188.617 121.023 L 184.834 122.977 181.917 119.923 C 177.454 115.251,175.927 114.613,169.200 114.611 C 159.755 114.608,152.609 120.431,150.067 130.200 C 149.838 131.080,149.416 132.700,149.129 133.800 C 147.145 141.406,148.956 155.528,152.822 162.600 C 159.513 174.838,175.567 176.135,183.779 165.100 C 185.120 163.297,185.044 163.302,188.800 164.759 C 190.450 165.399,192.108 166.022,192.486 166.143 C 194.873 166.911,187.452 175.756,182.240 178.353 C 171.304 183.803,154.608 180.860,147.951 172.309 C 147.219 171.369,146.493 170.507,146.336 170.392 C 145.843 170.032,142.069 162.281,141.471 160.400 C 137.474 147.820,138.258 132.984,143.502 122.000 C 149.822 108.762,164.329 102.642,178.706 107.150 M238.449 106.965 C 243.499 108.615,246.612 110.839,249.257 114.682 C 251.540 118.001,251.230 118.708,246.824 120.244 L 243.048 121.561 242.460 120.722 C 236.215 111.806,219.614 112.235,217.153 121.375 C 215.799 126.402,218.304 130.167,225.200 133.472 C 228.510 135.057,228.251 134.948,233.600 137.028 C 250.358 143.545,256.815 152.169,254.220 164.570 C 250.082 184.351,218.965 187.506,207.335 169.325 C 204.904 165.526,205.106 164.982,209.549 163.365 C 211.611 162.614,213.411 162.002,213.549 162.003 C 213.687 162.005,214.510 163.109,215.378 164.456 C 219.831 171.367,229.042 174.330,237.503 171.572 C 245.875 168.844,247.971 157.361,241.167 151.495 C 238.201 148.937,235.673 147.704,224.301 143.265 C 212.073 138.493,206.266 130.733,207.704 121.086 C 209.403 109.682,224.936 102.547,238.449 106.965 M190.400 194.538 C 215.688 200.113,226.518 227.647,211.893 249.179 C 208.428 254.280,192.491 266.957,186.164 269.645 C 185.964 269.730,184.481 270.610,182.869 271.600 C 181.257 272.590,179.318 273.764,178.559 274.210 C 166.867 281.071,156.895 292.577,155.429 300.898 L 155.165 302.395 187.082 302.498 L 219.000 302.600 219.000 309.800 L 219.000 317.000 178.300 317.102 L 137.600 317.204 137.600 314.067 C 137.600 292.724,148.790 276.107,174.094 259.872 C 175.355 259.062,176.481 258.400,176.595 258.400 C 176.944 258.400,188.996 250.570,190.212 249.553 C 211.188 232.020,204.170 207.653,178.200 207.843 C 166.450 207.929,159.266 212.046,154.683 221.320 C 152.608 225.519,152.669 225.464,150.961 224.638 C 150.323 224.329,148.900 223.676,147.800 223.185 C 146.700 222.695,144.670 221.778,143.290 221.147 C 141.909 220.516,140.624 220.000,140.433 220.000 C 139.349 220.000,139.531 218.619,141.059 215.253 C 148.336 199.228,170.143 190.072,190.400 194.538 M102.701 256.300 L 102.600 317.000 95.300 317.109 L 88.000 317.218 88.000 269.442 C 88.000 243.165,87.891 221.381,87.757 221.033 C 87.545 220.481,86.324 220.400,78.190 220.400 C 66.483 220.400,67.600 220.951,67.600 215.181 C 67.600 209.764,67.382 210.087,71.250 209.785 C 80.900 209.031,87.393 205.182,90.847 198.166 L 92.110 195.600 97.456 195.600 L 102.803 195.600 102.701 256.300 M319.200 202.600 L 319.200 209.600 293.624 209.600 C 278.214 209.600,267.955 209.748,267.816 209.974 C 267.581 210.355,267.273 212.619,265.200 229.200 C 262.886 247.710,262.846 246.231,265.610 244.378 C 275.209 237.942,290.344 236.170,302.200 240.094 C 332.024 249.967,336.453 292.582,309.600 311.283 C 293.158 322.733,263.498 321.654,246.911 309.002 C 243.284 306.235,243.169 305.988,244.614 304.049 C 251.901 294.275,252.107 294.090,254.000 295.633 C 267.657 306.769,287.708 308.470,300.617 299.588 C 303.879 297.344,309.600 290.128,309.600 288.259 C 309.600 287.984,309.751 287.589,309.936 287.380 C 312.246 284.764,311.800 272.023,309.193 266.200 C 302.289 250.776,278.849 247.412,264.895 259.842 C 263.562 261.029,262.292 262.000,262.072 262.000 C 261.235 262.000,248.103 257.436,247.657 256.991 C 247.472 256.806,247.843 252.828,248.850 244.200 C 249.571 238.023,250.054 233.771,250.396 230.600 C 250.586 228.840,250.924 225.870,251.148 224.000 C 252.726 210.815,253.685 202.546,253.958 199.761 C 254.134 197.980,254.405 196.315,254.562 196.061 C 254.774 195.719,263.149 195.600,287.024 195.600 L 319.200 195.600 319.200 202.600 " stroke="none" fill="#14244c" fill-rule="evenodd"></path></g></svg>